{
  "accessors": [
    {
      "bufferView": 2,
      "componentType": 5126,
      "count": 9252,
      "max": [
        1.0,
        1.0,
        1.0
      ],
      "min": [
        -1.0,
        -1.0,
        -1.0
      ],
      "type": "VEC3"
    },
    {
      "bufferView": 2,
      "byteOffset": 111024,
      "componentType": 5126,
      "count": 9252,
      "max": [
        1.0,
        1.0,
        1.0
      ],
      "min": [
        -1.0,
        -1.0,
        -1.0
      ],
      "type": "VEC3"
    },
    {
      "bufferView": 1,
      "componentType": 5126,
      "count": 9252,
      "max": [
        0.6144775152206421,
        1.0
      ],
      "min": [
        0.0,
        0.0
      ],
      "type": "VEC2"
    },
    {
      "bufferView": 0,
      "componentType": 5125,
      "count": 15594,
      "type": "SCALAR"
    },
    {
      "bufferView": 2,
      "byteOffset": 222048,
      "componentType": 5126,
      "count": 237,
      "max": [
        1.0,
        1.0,
        0.9999990463256836
      ],
      "min": [
        -1.0,
        -1.0,
        -1.0000009536743164
      ],
      "type": "VEC3"
    },
    {
      "bufferView": 2,
      "byteOffset": 224892,
      "componentType": 5126,
      "count": 237,
      "max": [
        1.0,
        1.0,
        1.0
      ],
      "min": [
        -1.0,
        -1.0,
        -1.0
      ],
      "type": "VEC3"
    },
    {
      "bufferView": 1,
      "byteOffset": 74016,
      "componentType": 5126,
      "count": 237,
      "max": [
        0.875,
        1.0
      ],
      "min": [
        0.125,
        0.0
      ],
      "type": "VEC2"
    },
    {
      "bufferView": 0,
      "byteOffset": 62376,
      "componentType": 5125,
      "count": 804,
      "type": "SCALAR"
    },
    {
      "bufferView": 2,
      "byteOffset": 227736,
      "componentType": 5126,
      "count": 1839,
      "max": [
        0.941017746925354,
        0.9415440559387207,
        0.37811559438705444
      ],
      "min": [
        -0.9410169124603271,
        -0.9415431022644043,
        -0.2190995216369629
      ],
      "type": "VEC3"
    },
    {
      "bufferView": 2,
      "byteOffset": 249804,
      "componentType": 5126,
      "count": 1839,
      "max": [
        0.9234406352043152,
        0.9239516258239746,
        1.0
      ],
      "min": [
        -0.9234393835067749,
        -0.9239563345909119,
        -0.5576948523521423
      ],
      "type": "VEC3"
    },
    {
      "bufferView": 1,
      "byteOffset": 75912,
      "componentType": 5126,
      "count": 1839,
      "max": [
        1.0,
        1.0
      ],
      "min": [
        0.0,
        0.02225903794169426
      ],
      "type": "VEC2"
    },
    {
      "bufferView": 0,
      "byteOffset": 65592,
      "componentType": 5125,
      "count": 9132,
      "type": "SCALAR"
    },
    {
      "bufferView": 2,
      "byteOffset": 271872,
      "componentType": 5126,
      "count": 10944,
      "max": [
        26.199995040893555,
        1.0,
        1.0
      ],
      "min": [
        -1.0,
        -1.0,
        -1.0
      ],
      "type": "VEC3"
    },
    {
      "bufferView": 2,
      "byteOffset": 403200,
      "componentType": 5126,
      "count": 10944,
      "max": [
        0.9994646310806274,
        0.9994646310806274,
        1.0
      ],
      "min": [
        -0.9994646310806274,
        -0.9994646310806274,
        -1.0
      ],
      "type": "VEC3"
    },
    {
      "bufferView": 1,
      "byteOffset": 90624,
      "componentType": 5126,
      "count": 10944,
      "max": [
        1.0,
        1.0
      ],
      "min": [
        -7.469207048416138e-07,
        0.01000000536441803
      ],
      "type": "VEC2"
    },
    {
      "bufferView": 0,
      "byteOffset": 102120,
      "componentType": 5125,
      "count": 21660,
      "type": "SCALAR"
    },
    {
      "bufferView": 2,
      "byteOffset": 534528,
      "componentType": 5126,
      "count": 10944,
      "max": [
        26.199995040893555,
        1.0,
        1.0
      ],
      "min": [
        -1.0,
        -1.0,
        -1.0
      ],
      "type": "VEC3"
    },
    {
      "bufferView": 2,
      "byteOffset": 665856,
      "componentType": 5126,
      "count": 10944,
      "max": [
        0.9994646310806274,
        0.9994646310806274,
        1.0
      ],
      "min": [
        -0.9994646310806274,
        -0.9994646310806274,
        -1.0
      ],
      "type": "VEC3"
    },
    {
      "bufferView": 1,
      "byteOffset": 178176,
      "componentType": 5126,
      "count": 10944,
      "max": [
        1.0,
        1.0
      ],
      "min": [
        -7.469207048416138e-07,
        0.01000000536441803
      ],
      "type": "VEC2"
    },
    {
      "bufferView": 0,
      "byteOffset": 188760,
      "componentType": 5125,
      "count": 21660,
      "type": "SCALAR"
    },
    {
      "bufferView": 2,
      "byteOffset": 797184,
      "componentType": 5126,
      "count": 160,
      "max": [
        1.0,
        1.0,
        1.0
      ],
      "min": [
        -1.0,
        -1.0,
        -1.0
      ],
      "type": "VEC3"
    },
    {
      "bufferView": 2,
      "byteOffset": 799104,
      "componentType": 5126,
      "count": 160,
      "max": [
        1.0,
        1.0,
        1.0
      ],
      "min": [
        -1.0,
        -1.0,
        -1.0
      ],
      "type": "VEC3"
    },
    {
      "bufferView": 1,
      "byteOffset": 265728,
      "componentType": 5126,
      "count": 160,
      "max": [
        0.875,
        1.0
      ],
      "min": [
        0.125,
        0.0
      ],
      "type": "VEC2"
    },
    {
      "bufferView": 0,
      "byteOffset": 275400,
      "componentType": 5125,
      "count": 576,
      "type": "SCALAR"
    },
    {
      "bufferView": 2,
      "byteOffset": 801024,
      "componentType": 5126,
      "count": 160,
      "max": [
        1.0,
        1.0,
        1.0
      ],
      "min": [
        -1.0,
        -1.0,
        -1.0
      ],
      "type": "VEC3"
    },
    {
      "bufferView": 2,
      "byteOffset": 802944,
      "componentType": 5126,
      "count": 160,
      "max": [
        1.0,
        1.0,
        1.0
      ],
      "min": [
        -1.0,
        -1.0,
        -1.0
      ],
      "type": "VEC3"
    },
    {
      "bufferView": 1,
      "byteOffset": 267008,
      "componentType": 5126,
      "count": 160,
      "max": [
        0.875,
        1.0
      ],
      "min": [
        0.125,
        0.0
      ],
      "type": "VEC2"
    },
    {
      "bufferView": 0,
      "byteOffset": 277704,
      "componentType": 5125,
      "count": 576,
      "type": "SCALAR"
    }
  ],
  "asset": {
    "extras": {
      "author": "Kroko.blend (https://sketchfab.com/jaromir.ternavskiy)",
      "license": "CC-BY-4.0 (http://creativecommons.org/licenses/by/4.0/)",
      "source": "https://sketchfab.com/3d-models/sharpener-3a58aefba1cc4e019d96b61a066d2c9f",
      "title": "Sharpener"
    },
    "generator": "Sketchfab-15.25.0",
    "version": "2.0"
  },
  "bufferViews": [
    {
      "buffer": 0,
      "byteLength": 280008,
      "name": "floatBufferViews",
      "target": 34963
    },
    {
      "buffer": 0,
      "byteLength": 268288,
      "byteOffset": 280008,
      "byteStride": 8,
      "name": "floatBufferViews",
      "target": 34962
    },
    {
      "buffer": 0,
      "byteLength": 804864,
      "byteOffset": 548296,
      "byteStride": 12,
      "name": "floatBufferViews",
      "target": 34962
    }
  ],
  "buffers": [
    {
      "byteLength": 1353160,
      "uri": "scene.bin"
    }
  ],
  "images": [
    {
      "uri": "textures/Material.002_baseColor.jpeg"
    }
  ],
  "materials": [
    {
      "doubleSided": true,
      "name": "Material",
      "pbrMetallicRoughness": {
        "baseColorFactor": [
          0.0,
          0.724166434874375,
          1.0,
          1.0
        ],
        "metallicFactor": 0.5592397995879607,
        "roughnessFactor": 0.03847326010898322
      }
    },
    {
      "doubleSided": true,
      "name": "Material.002",
      "pbrMetallicRoughness": {
        "baseColorTexture": {
          "index": 0
        },
        "metallicFactor": 0.19352439931245502,
        "roughnessFactor": 0.1542831368628934
      }
    },
    {
      "doubleSided": true,
      "name": "Material.003",
      "pbrMetallicRoughness": {
        "baseColorTexture": {
          "index": 0
        },
        "metallicFactor": 0.8761931464933987,
        "roughnessFactor": 0.3737123770281967
      }
    },
    {
      "doubleSided": true,
      "name": "Material.001",
      "pbrMetallicRoughness": {
        "baseColorFactor": [
          0.0,
          1.0,
          1.0,
          1.0
        ],
        "metallicFactor": 0.42514415282027523,
        "roughnessFactor": 0.6175226438785337
      }
    }
  ],
  "meshes": [
    {
      "name": "Roundcube.001_Material_0",
      "primitives": [
        {
          "attributes": {
            "NORMAL": 1,
            "POSITION": 0,
            "TEXCOORD_0": 2
          },
          "indices": 3,
          "material": 0,
          "mode": 4
        }
      ]
    },
    {
      "name": "Cube_Material.002_0",
      "primitives": [
        {
          "attributes": {
            "NORMAL": 5,
            "POSITION": 4,
            "TEXCOORD_0": 6
          },
          "indices": 7,
          "material": 1,
          "mode": 4
        }
      ]
    },
    {
      "name": "Sphere_Material.003_0",
      "primitives": [
        {
          "attributes": {
            "NORMAL": 9,
            "POSITION": 8,
            "TEXCOORD_0": 10
          },
          "indices": 11,
          "material": 2,
          "mode": 4
        }
      ]
    },
    {
      "name": "Cylinder.001_Material.001_0",
      "primitives": [
        {
          "attributes": {
            "NORMAL": 13,
            "POSITION": 12,
            "TEXCOORD_0": 14
          },
          "indices": 15,
          "material": 3,
          "mode": 4
        }
      ]
    },
    {
      "name": "Cylinder.002_Material.001_0",
      "primitives": [
        {
          "attributes": {
            "NORMAL": 17,
            "POSITION": 16,
            "TEXCOORD_0": 18
          },
          "indices": 19,
          "material": 3,
          "mode": 4
        }
      ]
    },
    {
      "name": "Cube.001_Material.003_0",
      "primitives": [
        {
          "attributes": {
            "NORMAL": 21,
            "POSITION": 20,
            "TEXCOORD_0": 22
          },
          "indices": 23,
          "material": 2,
          "mode": 4
        }
      ]
    },
    {
      "name": "Cube.002_Material.003_0",
      "primitives": [
        {
          "attributes": {
            "NORMAL": 25,
            "POSITION": 24,
            "TEXCOORD_0": 26
          },
          "indices": 27,
          "material": 2,
          "mode": 4
        }
      ]
    }
  ],
  "nodes": [
    {
      "children": [
        1
      ],
      "matrix": [
        1.0,
        0.0,
        0.0,
        0.0,
        0.0,
        2.220446049250313e-16,
        -1.0,
        0.0,
        0.0,
        1.0,
        2.220446049250313e-16,
        0.0,
        0.0,
        0.0,
        0.0,
        1.0
      ],
      "name": "Sketchfab_model"
    },
    {
      "children": [
        2
      ],
      "matrix": [
        0.009999999776482582,
        0.0,
        0.0,
        0.0,
        0.0,
        0.0,
        0.009999999776482582,
        0.0,
        0.0,
        -0.009999999776482582,
        0.0,
        0.0,
        0.0,
        0.0,
        0.0,
        1.0
      ],
      "name": "5c7867ced2da4291a9c98b59e03a8964.fbx"
    },
    {
      "children": [
        3,
        5,
        7,
        9,
        11,
        13,
        15
      ],
      "name": "RootNode"
    },
    {
      "children": [
        4
      ],
      "matrix": [
        108.8871841430664,
        0.0,
        0.0,
        0.0,
        0.0,
        -9.582736392483949e-06,
        -58.81841659545821,
        0.0,
        0.0,
        58.81841659545821,
        -9.582736392483949e-06,
        0.0,
        79.16484069824219,
        26.779483795166016,
        97.06599426269531,
        1.0
      ],
      "name": "Roundcube.001"
    },
    {
      "mesh": 0,
      "name": "Roundcube.001_Material_0"
    },
    {
      "children": [
        6
      ],
      "matrix": [
        61.350650787353516,
        0.0,
        0.0,
        0.0,
        0.0,
        -4.35755484637424e-06,
        -26.74648094177211,
        0.0,
        0.0,
        7.969097614288224,
        -1.2983307974596777e-06,
        0.0,
        86.41478729248047,
        79.88697814941406,
        90.77655029296875,
        1.0
      ],
      "name": "Cube"
    },
    {
      "mesh": 1,
      "name": "Cube_Material.002_0"
    },
    {
      "children": [
        8
      ],
      "matrix": [
        11.722780227661133,
        0.0,
        0.0,
        0.0,
        0.0,
        -1.90988331905168e-06,
        -11.722780227660978,
        0.0,
        0.0,
        11.722780227660978,
        -1.90988331905168e-06,
        0.0,
        84.22078704833984,
        88.41698455810547,
        82.05091094970703,
        1.0
      ],
      "name": "Sphere"
    },
    {
      "mesh": 2,
      "name": "Sphere_Material.003_0"
    },
    {
      "children": [
        10
      ],
      "matrix": [
        5.067318916320801,
        0.0,
        0.0,
        0.0,
        0.0,
        -8.255710405420638e-07,
        -5.067318916320734,
        0.0,
        0.0,
        51.501422882079396,
        -8.3906468055945e-06,
        0.0,
        16.052268981933594,
        26.647647857666016,
        141.62692260742188,
        1.0
      ],
      "name": "Cylinder.001"
    },
    {
      "mesh": 3,
      "name": "Cylinder.001_Material.001_0"
    },
    {
      "children": [
        12
      ],
      "matrix": [
        5.067318916320801,
        0.0,
        0.0,
        0.0,
        0.0,
        -8.255710405420638e-07,
        -5.067318916320734,
        0.0,
        0.0,
        51.501422882079396,
        -8.3906468055945e-06,
        0.0,
        16.052268981933594,
        26.647647857666016,
        52.49676513671875,
        1.0
      ],
      "name": "Cylinder.002"
    },
    {
      "mesh": 4,
      "name": "Cylinder.002_Material.001_0"
    },
    {
      "children": [
        14
      ],
      "matrix": [
        10.844206809997516,
        9.480307041055795e-07,
        -0.0,
        -0.0,
        7.931432989622188e-14,
        -9.072501488899145e-07,
        5.568661689758226,
        -0.0,
        -8.278122928096254e-07,
        9.469068527221516,
        1.5427070818678757e-06,
        -0.0,
        35.81468963623047,
        78.4133529663086,
        105.52278900146484,
        1.0
      ],
      "name": "Cube.001"
    },
    {
      "mesh": 5,
      "name": "Cube.001_Material.003_0"
    },
    {
      "children": [
        16
      ],
      "matrix": [
        10.844206809997516,
        9.480307041055795e-07,
        -0.0,
        -0.0,
        7.931432989622188e-14,
        -9.072501488899145e-07,
        5.568661689758226,
        -0.0,
        -8.278122928096254e-07,
        9.469068527221516,
        1.5427070818678757e-06,
        -0.0,
        136.8150177001953,
        78.4133529663086,
        105.52278900146484,
        1.0
      ],
      "name": "Cube.002"
    },
    {
      "mesh": 6,
      "name": "Cube.002_Material.003_0"
    }
  ],
  "samplers": [
    {
      "magFilter": 9729,
      "minFilter": 9987,
      "wrapS": 10497,
      "wrapT": 10497
    }
  ],
  "scene": 0,
  "scenes": [
    {
      "name": "Sketchfab_Scene",
      "nodes": [
        0
      ]
    }
  ],
  "textures": [
    {
      "sampler": 0,
      "source": 0
    }
  ]
}
