<svg width="32" height="32" viewBox="0 0 32 32" xmlns="http://www.w3.org/2000/svg">
  <defs>
    <linearGradient id="faviconGradient" x1="0%" y1="0%" x2="100%" y2="100%">
      <stop offset="0%" style="stop-color:#00ff41;stop-opacity:1" />
      <stop offset="50%" style="stop-color:#0066cc;stop-opacity:1" />
      <stop offset="100%" style="stop-color:#004d99;stop-opacity:1" />
    </linearGradient>
  </defs>
  
  <!-- Background -->
  <rect width="32" height="32" fill="#001122" rx="4"/>
  
  <!-- Letter M -->
  <path d="M4 8 L4 24 L6 24 L6 12 L10 18 L12 18 L16 12 L16 24 L18 24 L18 8 L16 8 L11 16 L6 8 Z" 
        fill="url(#faviconGradient)"/>
  
  <!-- Letter E -->
  <path d="M20 8 L20 24 L28 24 L28 22 L22 22 L22 17 L26 17 L26 15 L22 15 L22 10 L28 10 L28 8 Z" 
        fill="url(#faviconGradient)"/>
  
  <!-- Matrix dots -->
  <circle cx="8" cy="6" r="0.5" fill="#00ff41" opacity="0.6"/>
  <circle cx="24" cy="6" r="0.5" fill="#00ff41" opacity="0.6"/>
  <circle cx="8" cy="26" r="0.5" fill="#00ff41" opacity="0.6"/>
  <circle cx="24" cy="26" r="0.5" fill="#00ff41" opacity="0.6"/>
</svg> 