<svg xmlns="http://www.w3.org/2000/svg" viewBox="0 0 512 512">
  <defs>
    <linearGradient id="gradient" x1="0%" y1="0%" x2="100%" y2="100%">
      <stop offset="0%" stop-color="#0e7490" />
      <stop offset="100%" stop-color="#0f766e" />
    </linearGradient>
  </defs>
  <rect width="512" height="512" rx="64" fill="url(#gradient)"/>
  <g fill="#ffffff">
    <path d="M256 120c-52.8 0-96 43.2-96 96v48h48v-48c0-26.5 21.5-48 48-48s48 21.5 48 48v48h48v-48c0-52.8-43.2-96-96-96z"/>
    <path d="M336 288H176c-8.8 0-16 7.2-16 16v80c0 8.8 7.2 16 16 16h160c8.8 0 16-7.2 16-16v-80c0-8.8-7.2-16-16-16zm-80 72c-13.3 0-24-10.7-24-24s10.7-24 24-24 24 10.7 24 24-10.7 24-24 24z"/>
    <path d="M400 176c0-79.5-64.5-144-144-144S112 96.5 112 176v40h32v-40c0-61.9 50.1-112 112-112s112 50.1 112 112v40h32v-40z"/>
  </g>
</svg>